# xmcd
#
# Track frame offsets:
#	150
#	5164
#	28148
#	48967
#	62028
#	74892
#	93292
#	101549
#	116836
#	144894
#	156757
#	167689
#	187886
#	201440
#	215481
#	222069
#	234262
#	247605
#	258732
#	270819
#	278361
#	290978
#	305603
#
# Disc length: 4221 seconds
#
# Revision: 1
# Processed by: cddbd v1.4PL0 Copyright (c) Steve Scherf et al.
# Submitted via: audiograbber 1.81.03
#
DISCID=4f107b17
DTITLE=Various Artist - KinoShljager Disk 2
DYEAR=2002
DGENRE=Musical
TTITLE0=Kavkazskaya Plennitsa - Doroga
TTITLE1=Albert Asadulin - Doroga Bez Kontsa
TTITLE2=Zoloto Makkeny - Valeriy Obodzinskiy
TTITLE3=Alla Pugatchjeva - Po Ulitse Moey
TTITLE4=Kiril Lavrov - Putj K Pritchalu
TTITLE5=Tatjana Antsiferova - Tak Bylo V Mire Vsegda
TTITLE6=Mikhail Boyarskiy - Nastanet Denj
TTITLE7=Nikolay Rybnikov - Kogda Vesna Priydjet Ne Znayu
TTITLE8=Igorj Taljkov - Tchistye Prudy
TTITLE9=Maya Kristalinskaya - Dva Berega
TTITLE10=Sergey Nikitin - So Mnoyu Vot Tchto Proishodit
TTITLE11=Yak Yola - Poroy Ljubovj Kak Notch Temna
TTITLE12=Andrey Mironov - Beleet Moy Parus
TTITLE13=V.Levko - A Gody Letjat
TTITLE14=Sergey Sadaljskiy - O Bednom Gusare
TTITLE15=Yuriy Antonov - More
TTITLE16=Tatjana Antsiferova - Mletchnyi Putj
TTITLE17=Mark Bernes - Ljubimyi Gorod
TTITLE18=V.Ponomarjeva - Pod Laskoy Pljushevogo Pleda
TTITLE19=Bulat Okudgava - Poslanie Druzjam
TTITLE20=Maya Kristalinskaya - Prostchaite, Golubi
TTITLE21=Eduard Hilj - Kak Provogayut Parahody
TTITLE22=Raimond Pauls - Teatr
EXTD=
EXTT0=
EXTT1=
EXTT2=
EXTT3=
EXTT4=
EXTT5=
EXTT6=
EXTT7=
EXTT8=
EXTT9=
EXTT10=
EXTT11=
EXTT12=
EXTT13=
EXTT14=
EXTT15=
EXTT16=
EXTT17=
EXTT18=
EXTT19=
EXTT20=
EXTT21=
EXTT22=
PLAYORDER=
